<svg xmlns="http://www.w3.org/2000/svg" viewBox="0 0 1280 720" preserveAspectRatio="none">
  <g fill="#E8EEF8">
    <rect x="0" y="672" width="1280" height="48"/>
    <g id="dots">
      <rect x="15" y="6" width="2.5" height="2.5"/>
      <rect x="34" y="6" width="2.5" height="2.5"/>
      <rect x="53" y="6" width="2.5" height="2.5"/>
      <rect x="72" y="6" width="2.5" height="2.5"/>
      <rect x="91" y="6" width="2.5" height="2.5"/>
      <rect x="110" y="6" width="2.5" height="2.5"/>
      <rect x="129" y="6" width="2.5" height="2.5"/>
      <rect x="148" y="6" width="2.5" height="2.5"/>
      <rect x="167" y="6" width="2.5" height="2.5"/>
      <rect x="186" y="6" width="2.5" height="2.5"/>
      <rect x="205" y="6" width="2.5" height="2.5"/>
      <rect x="224" y="6" width="2.5" height="2.5"/>
      <rect x="243" y="6" width="2.5" height="2.5"/>
    </g>
  </g>
  <use href="#dots" y="19"/><use href="#dots" y="38"/><use href="#dots" y="57"/><use href="#dots" y="76"/>
  <use href="#dots" y="95"/><use href="#dots" y="114"/><use href="#dots" y="133"/><use href="#dots" y="152"/>
  <use href="#dots" y="171"/><use href="#dots" y="190"/><use href="#dots" y="209"/><use href="#dots" y="228"/>
  <use href="#dots" y="247"/><use href="#dots" y="266"/><use href="#dots" y="285"/><use href="#dots" y="304"/>
</svg>
