<svg viewBox="0 0 76 76" xmlns="http://www.w3.org/2000/svg" xmlns:xlink="http://www.w3.org/1999/xlink" id="Layer_2" overflow="hidden"><style>
.MsftOfcThm_Background1_Fill_v2 {
 fill:#FFFFFF; 
}
</style>
<defs/><g id="Layer_1-2"><g><path d="M12.13 42.38C12.69 45.74 13.88 48.91 15.69 51.81 15.07 52.53 14.69 53.43 14.62 54.39 14.54 55.57 14.93 56.71 15.72 57.6 16.6 58.6 17.82 59.1 19.05 59.1 19.9 59.1 20.74 58.85 21.48 58.36 25.13 61.33 29.46 63.24 34.1 63.94 34.43 66.06 36.26 67.68 38.47 67.68 40.68 67.68 42.58 65.98 42.85 63.79 46.18 63.17 49.4 61.89 52.26 60.04 53.09 60.75 54.11 61.14 55.15 61.14 56.19 61.14 57.23 60.78 58.08 60.04 58.97 59.26 59.5 58.18 59.58 56.99 59.65 55.95 59.33 54.95 58.73 54.12 61.42 50.68 63.18 46.66 63.9 42.36 66.05 42.06 67.72 40.22 67.72 37.99 67.72 35.76 66.06 33.93 63.91 33.62 63.35 30.25 62.15 27.09 60.35 24.19 60.97 23.47 61.35 22.57 61.42 21.6 61.5 20.42 61.11 19.28 60.32 18.39 58.84 16.71 56.38 16.43 54.57 17.63 51.17 14.86 47.16 13 42.86 12.2 42.59 10.01 40.74 8.3 38.48 8.3 36.22 8.3 34.45 9.92 34.12 12.04 30.76 12.54 27.59 13.67 24.66 15.41 23.01 14.01 20.55 13.98 18.88 15.45 17.99 16.23 17.46 17.31 17.38 18.5 17.32 19.41 17.54 20.29 18 21.05 14.94 24.66 12.94 28.97 12.16 33.62 10.01 33.92 8.34 35.76 8.34 37.99 8.34 40.22 10 42.05 12.15 42.36ZM21.79 23.22C22.43 23.22 23.07 23.06 23.67 22.78L31.53 32.63C30.51 33.85 29.83 35.35 29.62 36.99L17.08 36.99C16.73 35.48 15.6 34.28 14.15 33.8 14.88 29.63 16.67 25.75 19.4 22.49 20.13 22.96 20.96 23.22 21.8 23.22ZM38.11 31.55C41.74 31.55 44.69 34.5 44.69 38.13 44.69 41.76 41.74 44.71 38.11 44.71 34.48 44.71 31.53 41.76 31.53 38.13 31.53 34.5 34.48 31.55 38.11 31.55ZM54.85 25.21C55.41 25.52 56.03 25.72 56.69 25.76 56.79 25.76 56.88 25.76 56.98 25.76 57.59 25.76 58.17 25.62 58.72 25.39 60.31 27.98 61.37 30.81 61.89 33.8 60.43 34.28 59.3 35.48 58.95 37L46.61 37C46.45 35.78 46.03 34.64 45.41 33.63L54.85 25.2ZM55.42 52.3C54.4 52.24 53.42 52.54 52.6 53.11L44.72 43.61C45.78 42.33 46.48 40.74 46.66 39L58.96 39C59.31 40.51 60.44 41.71 61.9 42.2 61.23 46.07 59.63 49.7 57.22 52.81 56.67 52.52 56.07 52.33 55.43 52.29ZM17.07 39 29.57 39C29.74 40.66 30.38 42.17 31.36 43.42L21.95 51.35C21.22 50.71 20.31 50.31 19.33 50.25 18.62 50.21 17.94 50.35 17.3 50.62 15.71 48.02 14.64 45.19 14.12 42.2 15.58 41.72 16.71 40.52 17.06 39ZM17.21 56.29C16.78 55.8 16.57 55.17 16.61 54.53 16.65 53.88 16.94 53.29 17.43 52.86 17.88 52.47 18.44 52.25 19.03 52.25 19.08 52.25 19.14 52.25 19.19 52.25 19.84 52.29 20.43 52.58 20.86 53.07 21.29 53.56 21.5 54.19 21.46 54.83 21.42 55.48 21.13 56.07 20.64 56.5 19.63 57.38 18.09 57.29 17.2 56.28ZM34.24 61.95C30.06 61.3 26.16 59.58 22.85 56.92 23.2 56.33 23.42 55.67 23.47 54.97 23.51 54.28 23.38 53.61 23.12 52.99L32.77 44.85C34.08 45.89 35.69 46.56 37.45 46.69L37.45 58.95C35.91 59.31 34.7 60.46 34.23 61.95ZM38.46 65.69C37.12 65.69 36.02 64.6 36.02 63.25 36.02 61.9 37.11 60.81 38.46 60.81 39.81 60.81 40.9 61.9 40.9 63.25 40.9 64.6 39.81 65.69 38.46 65.69ZM39.46 58.94 39.46 46.6C40.87 46.38 42.16 45.81 43.26 44.99L51.25 54.61C50.95 55.17 50.75 55.78 50.71 56.44 50.67 57.14 50.8 57.81 51.07 58.44 48.5 60.08 45.62 61.23 42.64 61.81 42.14 60.39 40.95 59.29 39.47 58.95ZM56.74 58.55C55.73 59.43 54.19 59.34 53.3 58.33 52.87 57.84 52.66 57.21 52.7 56.57 52.74 55.92 53.03 55.33 53.52 54.9 54.01 54.47 54.64 54.26 55.28 54.3 55.93 54.34 56.52 54.63 56.95 55.12 57.38 55.61 57.59 56.24 57.55 56.88 57.51 57.53 57.22 58.12 56.73 58.55ZM65.7 38C65.7 39.34 64.61 40.44 63.26 40.44 61.91 40.44 60.82 39.35 60.82 38 60.82 36.65 61.91 35.56 63.26 35.56 64.61 35.56 65.7 36.65 65.7 38ZM58.81 19.72C59.24 20.21 59.45 20.84 59.41 21.48 59.37 22.13 59.08 22.72 58.59 23.15 58.1 23.58 57.47 23.79 56.83 23.75 56.18 23.71 55.59 23.42 55.16 22.93 54.73 22.44 54.52 21.81 54.56 21.17 54.6 20.52 54.89 19.93 55.38 19.5 56.39 18.61 57.93 18.71 58.82 19.72ZM42.63 14.2C46.49 14.94 50.1 16.61 53.17 19.08 52.82 19.67 52.59 20.33 52.55 21.04 52.48 22.06 52.78 23.03 53.36 23.85L44.17 32.05C42.92 30.8 41.28 29.95 39.46 29.66L39.46 17.05C40.94 16.71 42.13 15.61 42.63 14.19ZM38.46 10.31C39.8 10.31 40.9 11.4 40.9 12.75 40.9 14.1 39.81 15.19 38.46 15.19 37.11 15.19 36.02 14.1 36.02 12.75 36.02 11.4 37.11 10.31 38.46 10.31ZM37.46 17.06 37.46 29.58C35.79 29.71 34.26 30.31 32.99 31.26L25.24 21.55C26.27 20.26 26.48 18.52 25.83 17.03 28.44 15.51 31.26 14.51 34.24 14.05 34.7 15.55 35.92 16.71 37.46 17.06ZM20.18 16.96C20.64 16.55 21.22 16.35 21.79 16.35 22.47 16.35 23.14 16.63 23.62 17.18 24.51 18.19 24.41 19.73 23.4 20.62 22.39 21.51 20.85 21.41 19.96 20.4 19.53 19.91 19.32 19.28 19.36 18.64 19.4 17.99 19.69 17.4 20.18 16.97ZM12.76 35.57C14.1 35.57 15.2 36.66 15.2 38.01 15.2 39.36 14.11 40.45 12.76 40.45 11.41 40.45 10.32 39.36 10.32 38.01 10.32 36.66 11.41 35.57 12.76 35.57Z" class="MsftOfcThm_Background1_Fill_v2" fill="#FFFFFF"/><path d="M0 0 0 76 76 76 76 0 0 0ZM74 74 2 74 2 2 74 2 74 74Z" class="MsftOfcThm_Background1_Fill_v2" fill="#FFFFFF"/></g></g></svg>